<svg id="Capa_1" enable-background="new 0 0 510 510" height="512" viewBox="0 0 510 510" width="512" xmlns="http://www.w3.org/2000/svg" xmlns:xlink="http://www.w3.org/1999/xlink"><linearGradient id="lg1"><stop offset="0" stop-color="#537983"/><stop offset=".593" stop-color="#554e56"/><stop offset="1" stop-color="#433f43"/></linearGradient><linearGradient id="SVGID_1_" gradientUnits="userSpaceOnUse" x1="53.627" x2="499.524" xlink:href="#lg1" y1="347.357" y2="347.357"/><linearGradient id="SVGID_2_" gradientUnits="userSpaceOnUse" x1="-157.862" x2="409.643" xlink:href="#lg1" y1="347.357" y2="347.357"/><linearGradient id="SVGID_3_" gradientUnits="userSpaceOnUse" x1="-157.862" x2="409.643" xlink:href="#lg1" y1="486.936" y2="486.936"/><linearGradient id="SVGID_4_" gradientUnits="userSpaceOnUse" x1="0" x2="135.891" xlink:href="#lg1" y1="193.63" y2="193.63"/><linearGradient id="SVGID_5_" gradientUnits="userSpaceOnUse" x1="387.259" x2="523.151" xlink:href="#lg1" y1="193.63" y2="193.63"/><linearGradient id="SVGID_6_" gradientUnits="userSpaceOnUse" x1="347.778" x2="510.332" xlink:href="#lg1" y1="193.63" y2="193.63"/><linearGradient id="SVGID_7_" gradientUnits="userSpaceOnUse" x1="283.63" x2="419.521" xlink:href="#lg1" y1="61.37" y2="61.37"/><linearGradient id="SVGID_8_" gradientUnits="userSpaceOnUse" x1="244.148" x2="406.702" xlink:href="#lg1" y1="61.37" y2="61.37"/><linearGradient id="SVGID_9_" gradientUnits="userSpaceOnUse" x1="103.63" x2="239.521" xlink:href="#lg1" y1="61.37" y2="61.37"/><linearGradient id="SVGID_10_" gradientUnits="userSpaceOnUse" x1="64.148" x2="226.702" xlink:href="#lg1" y1="61.37" y2="61.37"/><linearGradient id="SVGID_11_" gradientUnits="userSpaceOnUse" x1="-39.481" x2="123.072" xlink:href="#lg1" y1="193.63" y2="193.63"/><g><path d="m385.029 510c-12.102 0-23.902-4.125-33.475-11.899-27.572-22.391-60.96-34.227-96.554-34.227s-68.983 11.836-96.554 34.228c-12.313 10.001-28.314 13.961-43.897 10.867-15.686-3.114-29.057-12.97-36.686-27.042-15.855-29.246-24.236-62.387-24.236-95.84 0-53.789 20.946-104.358 58.981-142.392s88.603-58.981 142.392-58.981c53.473 0 103.778 20.604 141.648 58.018 37.876 37.419 59.082 87.472 59.711 140.938.399 33.852-7.751 67.381-23.579 97.061-6.981 13.09-18.763 23.153-33.033 27.209-4.87 1.384-9.819 2.06-14.718 2.06z" fill="url(#SVGID_1_)"/><g><path d="m396.648 242.732c-37.871-37.414-88.176-58.018-141.648-58.018-6.721 0-13.391.327-19.994.974 45.915 4.482 88.519 24.341 121.622 57.044 37.876 37.419 59.082 87.472 59.711 140.938.398 33.852-7.751 67.381-23.579 97.061-6.089 11.419-15.834 20.531-27.696 25.365 6.323 2.572 13.094 3.904 19.964 3.904 4.899 0 9.849-.677 14.718-2.061 14.27-4.056 26.052-14.119 33.033-27.209 15.828-29.68 23.977-63.209 23.579-97.061-.628-53.466-21.834-103.519-59.71-140.937z" fill="url(#SVGID_2_)"/><path d="m214.98 463.874c-35.594 0-68.983 11.836-96.554 34.228-4.138 3.36-8.698 6.021-13.512 7.979 3.089 1.245 6.306 2.227 9.636 2.888 15.583 3.094 31.583-.867 43.897-10.867 22.337-18.141 48.492-29.35 76.544-32.954-6.575-.845-13.253-1.274-20.011-1.274z" fill="url(#SVGID_3_)"/></g><circle cx="61.37" cy="193.63" fill="url(#SVGID_4_)" r="61.37"/><circle cx="448.63" cy="193.63" fill="url(#SVGID_5_)" r="61.37"/><path d="m448.63 132.259c-7.009 0-13.736 1.191-20.01 3.355 24.065 8.3 41.36 31.131 41.36 58.016s-17.295 49.716-41.36 58.016c6.274 2.164 13.001 3.355 20.01 3.355 33.894 0 61.37-27.476 61.37-61.37 0-33.895-27.476-61.372-61.37-61.372z" fill="url(#SVGID_6_)"/><circle cx="345" cy="61.37" fill="url(#SVGID_7_)" r="61.37"/><path d="m345 0c-7.009 0-13.736 1.191-20.01 3.355 24.065 8.3 41.36 31.131 41.36 58.016s-17.295 49.716-41.36 58.016c6.274 2.164 13.001 3.355 20.01 3.355 33.894 0 61.37-27.476 61.37-61.37 0-33.896-27.476-61.372-61.37-61.372z" fill="url(#SVGID_8_)"/><circle cx="165" cy="61.37" fill="url(#SVGID_9_)" r="61.37"/><path d="m165 0c-7.009 0-13.736 1.191-20.01 3.355 24.065 8.3 41.36 31.131 41.36 58.016s-17.295 49.716-41.36 58.016c6.274 2.164 13.001 3.355 20.01 3.355 33.894 0 61.37-27.476 61.37-61.37 0-33.896-27.476-61.372-61.37-61.372z" fill="url(#SVGID_10_)"/><path d="m61.37 132.259c-7.009 0-13.736 1.191-20.01 3.355 24.065 8.3 41.36 31.131 41.36 58.016s-17.295 49.716-41.36 58.016c6.274 2.163 13.001 3.354 20.01 3.354 33.894 0 61.37-27.476 61.37-61.37.001-33.894-27.476-61.371-61.37-61.371z" fill="url(#SVGID_11_)"/></g></svg>